# Blender 4.5.3 LTS
# www.blender.org
mtllib dado.mtl
o Cube
v 1.000000 1.000000 -1.000000
v 1.000000 -1.000000 -1.000000
v 1.000000 1.000000 1.000000
v 1.000000 -1.000000 1.000000
v -1.000000 1.000000 -1.000000
v -1.000000 -1.000000 -1.000000
v -1.000000 1.000000 1.000000
v -1.000000 -1.000000 1.000000
vn -0.0000 1.0000 -0.0000
vn -0.0000 -0.0000 1.0000
vn -1.0000 -0.0000 -0.0000
vn -0.0000 -1.0000 -0.0000
vn 1.0000 -0.0000 -0.0000
vn -0.0000 -0.0000 -1.0000
vt 0.503906 0.005859
vt 0.753906 0.005859
vt 0.753906 0.255859
vt 0.503906 0.255859
vt 0.253906 0.255859
vt 0.503906 0.505859
vt 0.253906 0.505859
vt 0.251953 0.998047
vt 0.501953 0.998047
vt 0.501953 0.748047
vt 0.251953 0.748047
vt -0.001953 0.248047
vt 0.248047 0.248047
vt 0.248047 -0.001953
vt -0.001953 -0.001953
vt 0.253906 0.005859
vt 0.501953 0.498047
vt 0.251953 0.498047
s 0
usemtl Material.003
f 1/1/1 5/2/1 7/3/1 3/4/1
f 4/5/2 3/4/2 7/6/2 8/7/2
f 8/8/3 7/9/3 5/10/3 6/11/3
f 6/12/4 2/13/4 4/14/4 8/15/4
f 2/16/5 1/1/5 3/4/5 4/5/5
f 6/11/6 5/10/6 1/17/6 2/18/6
